# Blender 3.2.0
# www.blender.org
mtllib camera.mtl
o Film Camera
v -0.272511 -0.155347 -1.565079
v -0.147500 -0.272180 -1.565079
v -0.255763 -0.213764 -1.565079
v -0.210006 -0.256527 -1.565079
v -0.147500 0.272180 -1.565079
v -0.272511 0.155346 -1.565079
v -0.210006 0.256527 -1.565079
v -0.255763 0.213763 -1.565079
v -0.875866 -0.759058 -2.910349
v -1.000877 -0.642225 -2.910349
v -0.938371 -0.743406 -2.910349
v -0.984128 -0.700642 -2.910349
v -1.000876 0.642223 -2.910349
v -0.875865 0.759057 -2.910349
v -0.984128 0.700640 -2.910349
v -0.938371 0.743404 -2.910349
v 0.147303 -0.272180 -1.565079
v 0.272315 -0.155346 -1.565079
v 0.209809 -0.256527 -1.565079
v 0.255566 -0.213763 -1.565079
v 0.272315 0.155347 -1.565079
v 0.147303 0.272180 -1.565079
v 0.255566 0.213763 -1.565079
v 0.209809 0.256527 -1.565079
v 1.000680 -0.642223 -2.910349
v 0.875669 -0.759057 -2.910349
v 0.983932 -0.700640 -2.910349
v 0.938174 -0.743404 -2.910349
v 0.875669 0.759058 -2.910349
v 1.000680 0.642225 -2.910349
v 0.938175 0.743406 -2.910349
v 0.983932 0.700642 -2.910349
v -0.000098 0.539276 -1.570927
v 0.105199 0.528914 -1.570927
v 0.206451 0.498226 -1.570927
v 0.299764 0.448392 -1.570927
v 0.381554 0.381326 -1.570927
v 0.448678 0.299606 -1.570927
v 0.498555 0.206372 -1.570927
v 0.529269 0.105208 -1.570927
v 0.539640 0.000000 -1.570927
v 0.529269 -0.105207 -1.570927
v 0.498555 -0.206371 -1.570927
v 0.448678 -0.299605 -1.570927
v 0.381554 -0.381325 -1.570927
v 0.299764 -0.448391 -1.570927
v 0.206450 -0.498226 -1.570927
v 0.105199 -0.528914 -1.570927
v -0.000098 -0.539276 -1.570927
v -0.105396 -0.528914 -1.570927
v -0.206647 -0.498226 -1.570927
v -0.299961 -0.448392 -1.570927
v -0.381751 -0.381326 -1.570927
v -0.448874 -0.299606 -1.570927
v -0.498751 -0.206373 -1.570927
v -0.529465 -0.105208 -1.570927
v -0.539836 -0.000001 -1.570927
v -0.529465 0.105207 -1.570927
v -0.498751 0.206372 -1.570927
v -0.448874 0.299605 -1.570927
v -0.381751 0.381325 -1.570927
v -0.299961 0.448391 -1.570927
v -0.206647 0.498226 -1.570927
v -0.105396 0.528914 -1.570927
v -0.000098 0.479842 -1.719507
v -0.000098 0.539276 -1.660359
v -0.000098 0.509559 -1.711583
v -0.000098 0.531313 -1.689933
v 0.093594 0.470622 -1.719507
v 0.105199 0.528914 -1.660359
v 0.099397 0.499768 -1.711583
v 0.103645 0.521104 -1.689933
v 0.183687 0.443316 -1.719507
v 0.206451 0.498226 -1.660359
v 0.195069 0.470771 -1.711583
v 0.203401 0.490869 -1.689933
v 0.266716 0.398974 -1.719507
v 0.299764 0.448392 -1.660359
v 0.283240 0.423683 -1.711583
v 0.295336 0.441771 -1.689933
v 0.339492 0.339300 -1.719507
v 0.381554 0.381326 -1.660359
v 0.360523 0.360313 -1.711583
v 0.375919 0.375695 -1.689933
v 0.399218 0.266586 -1.719507
v 0.448678 0.299606 -1.660359
v 0.423948 0.283096 -1.711583
v 0.442051 0.295182 -1.689933
v 0.443598 0.183628 -1.719507
v 0.498555 0.206372 -1.660359
v 0.471076 0.195000 -1.711583
v 0.491192 0.203325 -1.689933
v 0.470927 0.093613 -1.719507
v 0.529269 0.105208 -1.660359
v 0.500098 0.099411 -1.711583
v 0.521453 0.103655 -1.689933
v 0.480155 0.000000 -1.719507
v 0.539640 0.000000 -1.660359
v 0.509898 0.000000 -1.711583
v 0.531671 0.000000 -1.689933
v 0.470927 -0.093612 -1.719507
v 0.529269 -0.105207 -1.660359
v 0.500098 -0.099410 -1.711583
v 0.521453 -0.103654 -1.689933
v 0.443598 -0.183627 -1.719507
v 0.498555 -0.206371 -1.660359
v 0.471076 -0.194999 -1.711583
v 0.491192 -0.203324 -1.689933
v 0.399218 -0.266585 -1.719507
v 0.448678 -0.299605 -1.660359
v 0.423948 -0.283095 -1.711583
v 0.442051 -0.295181 -1.689933
v 0.339492 -0.339299 -1.719507
v 0.381554 -0.381325 -1.660359
v 0.360523 -0.360312 -1.711583
v 0.375919 -0.375695 -1.689933
v 0.266716 -0.398974 -1.719507
v 0.299764 -0.448391 -1.660359
v 0.283240 -0.423683 -1.711583
v 0.295336 -0.441771 -1.689933
v 0.183687 -0.443316 -1.719507
v 0.206450 -0.498226 -1.660359
v 0.195069 -0.470771 -1.711583
v 0.203401 -0.490869 -1.689933
v 0.093594 -0.470622 -1.719507
v 0.105199 -0.528914 -1.660359
v 0.099397 -0.499768 -1.711583
v 0.103645 -0.521104 -1.689933
v -0.000098 -0.479842 -1.719507
v -0.000098 -0.539276 -1.660359
v -0.000098 -0.509559 -1.711583
v -0.000098 -0.531313 -1.689933
v -0.093791 -0.470622 -1.719507
v -0.105396 -0.528914 -1.660359
v -0.099594 -0.499768 -1.711583
v -0.103841 -0.521104 -1.689933
v -0.183883 -0.443316 -1.719507
v -0.206647 -0.498226 -1.660359
v -0.195265 -0.470771 -1.711583
v -0.203597 -0.490870 -1.689933
v -0.266913 -0.398974 -1.719507
v -0.299961 -0.448392 -1.660359
v -0.283437 -0.423683 -1.711583
v -0.295533 -0.441771 -1.689933
v -0.339689 -0.339300 -1.719507
v -0.381751 -0.381326 -1.660359
v -0.360720 -0.360313 -1.711583
v -0.376116 -0.375696 -1.689933
v -0.399414 -0.266587 -1.719507
v -0.448874 -0.299606 -1.660359
v -0.424144 -0.283096 -1.711583
v -0.442248 -0.295183 -1.689933
v -0.443794 -0.183628 -1.719507
v -0.498751 -0.206373 -1.660359
v -0.471273 -0.195000 -1.711583
v -0.491389 -0.203325 -1.689933
v -0.471124 -0.093613 -1.719507
v -0.529465 -0.105208 -1.660359
v -0.500294 -0.099411 -1.711583
v -0.521649 -0.103655 -1.689933
v -0.480352 -0.000001 -1.719507
v -0.539836 -0.000001 -1.660359
v -0.510094 -0.000001 -1.711583
v -0.531867 -0.000001 -1.689933
v -0.471124 0.093612 -1.719507
v -0.529465 0.105207 -1.660359
v -0.500294 0.099409 -1.711583
v -0.521649 0.103654 -1.689933
v -0.443794 0.183627 -1.719507
v -0.498751 0.206372 -1.660359
v -0.471273 0.194999 -1.711583
v -0.491388 0.203324 -1.689933
v -0.399415 0.266585 -1.719507
v -0.448874 0.299605 -1.660359
v -0.424144 0.283095 -1.711583
v -0.442248 0.295181 -1.689933
v -0.339689 0.339299 -1.719507
v -0.381751 0.381325 -1.660359
v -0.360720 0.360312 -1.711583
v -0.376116 0.375695 -1.689933
v -0.266913 0.398974 -1.719507
v -0.299961 0.448391 -1.660359
v -0.283437 0.423682 -1.711583
v -0.295533 0.441770 -1.689933
v -0.183883 0.443316 -1.719507
v -0.206647 0.498226 -1.660359
v -0.195265 0.470771 -1.711583
v -0.203597 0.490869 -1.689933
v -0.093791 0.470622 -1.719507
v -0.105396 0.528914 -1.660359
v -0.099594 0.499768 -1.711583
v -0.103841 0.521104 -1.689933
v 0.712280 0.635597 -1.009419
v 0.712280 -0.635596 -1.009419
v 0.712280 -0.635596 1.009419
v 0.712280 0.635597 1.009419
v -0.712477 -0.880360 1.588144
v -0.627247 -1.000001 1.588144
v -0.701058 -0.940180 1.588144
v -0.669862 -0.983971 1.588144
v -0.627247 0.999999 1.588144
v -0.712477 0.880358 1.588144
v -0.669862 0.983970 1.588144
v -0.701058 0.940179 1.588144
v -0.627247 -1.000001 -1.588144
v -0.712477 -0.880360 -1.588144
v -0.669862 -0.983971 -1.588144
v -0.701058 -0.940180 -1.588144
v -0.712477 0.880358 -1.588144
v -0.627247 0.999999 -1.588144
v -0.701058 0.940179 -1.588144
v -0.669862 0.983970 -1.588144
v 0.627050 -1.000000 1.588144
v 0.712280 -0.880358 1.398137
v 0.712280 -0.880358 1.588144
v 0.669665 -0.983971 1.562688
v 0.700862 -0.940179 1.493140
v 0.712280 0.880360 1.398137
v 0.627051 1.000001 1.588144
v 0.712280 0.880360 1.588144
v 0.700862 0.940180 1.493140
v 0.669665 0.983972 1.562688
v 0.712280 -0.880358 -1.398137
v 0.627050 -1.000000 -1.588144
v 0.712280 -0.880358 -1.588144
v 0.700862 -0.940179 -1.493140
v 0.669665 -0.983971 -1.562688
v 0.627051 1.000001 -1.588144
v 0.712280 0.880360 -1.398137
v 0.712280 0.880360 -1.588144
v 0.669665 0.983972 -1.562688
v 0.700862 0.940180 -1.493140
v 0.793386 0.635598 -1.009419
v 0.878616 0.515957 -1.009419
v 0.836001 0.619569 -1.009419
v 0.867198 0.575777 -1.009419
v 0.878616 -0.515955 -1.009419
v 0.793386 -0.635596 -1.009419
v 0.867198 -0.575776 -1.009419
v 0.836001 -0.619567 -1.009419
v 0.793386 -0.635596 1.009419
v 0.878616 -0.515955 1.009419
v 0.836001 -0.619567 1.009419
v 0.867198 -0.575776 1.009419
v 0.878616 0.515957 1.009419
v 0.793386 0.635598 1.009419
v 0.867198 0.575777 1.009419
v 0.836001 0.619569 1.009419
v -0.900007 -0.713009 -2.910349
v -0.840057 -0.728022 -2.910349
v -0.943893 -0.671994 -2.910349
v -0.959957 -0.615966 -2.910349
v -0.840057 0.728020 -2.910349
v -0.900007 0.713007 -2.910349
v -0.943893 0.671992 -2.910349
v -0.959957 0.615964 -2.910349
v 0.839860 -0.728020 -2.910349
v 0.899810 -0.713008 -2.910349
v 0.943696 -0.671992 -2.910349
v 0.959760 -0.615964 -2.910349
v 0.899810 0.713009 -2.910349
v 0.839860 0.728022 -2.910349
v 0.943696 0.671994 -2.910349
v 0.959760 0.615966 -2.910349
v -0.444996 -0.352498 -2.218556
v -0.415358 -0.359920 -2.218556
v -0.466693 -0.332221 -2.218556
v -0.474635 -0.304522 -2.218556
v -0.415358 0.359919 -2.218556
v -0.444996 0.352498 -2.218556
v -0.466693 0.332220 -2.218556
v -0.474634 0.304521 -2.218556
v 0.415161 -0.359919 -2.218556
v 0.444800 -0.352498 -2.218556
v 0.466496 -0.332220 -2.218556
v 0.474438 -0.304521 -2.218556
v 0.444800 0.352499 -2.218556
v 0.415162 0.359920 -2.218556
v 0.466496 0.332221 -2.218556
v 0.474438 0.304522 -2.218556
vn -0.0000 -0.0000 -1.0000
vn -0.8794 -0.0000 -0.4761
vn -0.0000 -0.9403 -0.3403
vn 0.8794 -0.0000 -0.4761
vn -0.0000 -0.0000 1.0000
vn 0.2188 0.8736 -0.4346
vn 0.5766 0.6170 -0.5355
vn 0.8169 0.2342 -0.5271
vn 0.2188 -0.8736 -0.4346
vn 0.5766 -0.6170 -0.5355
vn 0.8169 -0.2342 -0.5271
vn -0.2188 0.8736 -0.4346
vn -0.5766 0.6170 -0.5355
vn -0.8169 0.2342 -0.5271
vn -0.2188 -0.8736 -0.4346
vn -0.5766 -0.6170 -0.5355
vn -0.8169 -0.2342 -0.5271
vn -0.0000 0.9403 -0.3403
vn 0.0979 -0.9952 -0.0000
vn -0.4711 -0.8821 -0.0000
vn -0.6341 -0.7733 -0.0000
vn -0.7727 -0.6347 -0.0000
vn -0.8818 -0.4717 -0.0000
vn -0.9569 -0.2905 -0.0000
vn -0.9952 -0.0981 -0.0000
vn -0.9952 0.0981 -0.0000
vn -0.9569 0.2905 -0.0000
vn -0.8818 0.4717 -0.0000
vn -0.7727 0.6347 -0.0000
vn -0.6341 0.7733 -0.0000
vn -0.4711 0.8821 -0.0000
vn -0.2901 0.9570 -0.0000
vn -0.0979 0.9952 -0.0000
vn 0.0979 0.9952 -0.0000
vn 0.2901 0.9570 -0.0000
vn 0.4711 0.8821 -0.0000
vn 0.6341 0.7733 -0.0000
vn 0.7727 0.6347 -0.0000
vn 0.8818 0.4717 -0.0000
vn 0.9569 0.2905 -0.0000
vn 0.9952 0.0981 -0.0000
vn 0.9952 -0.0981 -0.0000
vn 0.9569 -0.2905 -0.0000
vn 0.8818 -0.4717 -0.0000
vn 0.7727 -0.6347 -0.0000
vn 0.6341 -0.7733 -0.0000
vn 0.4711 -0.8821 -0.0000
vn 0.2901 -0.9570 -0.0000
vn -0.2901 -0.9570 -0.0000
vn -0.0979 -0.9952 -0.0000
vn -0.0946 -0.9613 0.2588
vn -0.0692 -0.7037 0.7071
vn -0.0000 -0.2577 0.9662
vn -0.0546 -0.2471 0.9675
vn -0.0463 -0.2587 0.9649
vn -0.2802 -0.9244 0.2588
vn -0.2051 -0.6767 0.7071
vn -0.0751 -0.2477 0.9659
vn -0.4550 -0.8520 0.2589
vn -0.3331 -0.6237 0.7072
vn -0.1219 -0.2283 0.9659
vn -0.6125 -0.7469 0.2589
vn -0.6124 -0.7469 0.2589
vn -0.4483 -0.5467 0.7072
vn -0.1641 -0.2001 0.9659
vn -0.7464 -0.6131 0.2589
vn -0.5463 -0.4487 0.7073
vn -0.1999 -0.1642 0.9660
vn -0.8517 -0.4556 0.2590
vn -0.6233 -0.3334 0.7073
vn -0.2281 -0.1220 0.9660
vn -0.9242 -0.2806 0.2590
vn -0.6763 -0.2053 0.7074
vn -0.2475 -0.0751 0.9660
vn -0.9612 -0.0948 0.2590
vn -0.7034 -0.0693 0.7074
vn -0.2574 -0.0254 0.9660
vn -0.9612 0.0948 0.2590
vn -0.7034 0.0693 0.7074
vn -0.2574 0.0254 0.9660
vn -0.9242 0.2806 0.2590
vn -0.6763 0.2053 0.7074
vn -0.2475 0.0751 0.9660
vn -0.8517 0.4556 0.2590
vn -0.6233 0.3334 0.7073
vn -0.2281 0.1220 0.9660
vn -0.7464 0.6131 0.2589
vn -0.5463 0.4487 0.7073
vn -0.1999 0.1642 0.9660
vn -0.6125 0.7469 0.2589
vn -0.4483 0.5467 0.7072
vn -0.1641 0.2001 0.9659
vn -0.1640 0.2001 0.9659
vn -0.4550 0.8520 0.2589
vn -0.3331 0.6237 0.7072
vn -0.1219 0.2283 0.9659
vn -0.2802 0.9244 0.2588
vn -0.2051 0.6767 0.7071
vn -0.0751 0.2477 0.9659
vn -0.0463 0.2587 0.9649
vn -0.0946 0.9613 0.2588
vn -0.0692 0.7037 0.7071
vn -0.0693 0.7037 0.7071
vn -0.0546 0.2470 0.9675
vn -0.0000 0.2577 0.9662
vn 0.0946 0.9613 0.2588
vn 0.0692 0.7037 0.7071
vn 0.0546 0.2470 0.9675
vn 0.0463 0.2587 0.9649
vn 0.2802 0.9244 0.2588
vn 0.2051 0.6767 0.7071
vn 0.0751 0.2477 0.9659
vn 0.4550 0.8520 0.2589
vn 0.3331 0.6237 0.7072
vn 0.1219 0.2283 0.9659
vn 0.6125 0.7469 0.2589
vn 0.6124 0.7469 0.2589
vn 0.4483 0.5467 0.7072
vn 0.1641 0.2001 0.9659
vn 0.7464 0.6131 0.2589
vn 0.5463 0.4487 0.7073
vn 0.1999 0.1642 0.9660
vn 0.8517 0.4556 0.2590
vn 0.6233 0.3334 0.7073
vn 0.2281 0.1220 0.9660
vn 0.9242 0.2806 0.2590
vn 0.6763 0.2053 0.7074
vn 0.2475 0.0751 0.9660
vn 0.9612 0.0948 0.2590
vn 0.7034 0.0693 0.7074
vn 0.2574 0.0254 0.9660
vn 0.9612 -0.0948 0.2590
vn 0.9612 -0.0947 0.2590
vn 0.7034 -0.0693 0.7074
vn 0.2574 -0.0254 0.9660
vn 0.9242 -0.2806 0.2590
vn 0.6763 -0.2053 0.7074
vn 0.2475 -0.0751 0.9660
vn 0.8517 -0.4556 0.2590
vn 0.6233 -0.3334 0.7073
vn 0.2281 -0.1220 0.9660
vn 0.7464 -0.6131 0.2589
vn 0.5463 -0.4487 0.7073
vn 0.1999 -0.1642 0.9660
vn 0.6124 -0.7469 0.2589
vn 0.6125 -0.7469 0.2589
vn 0.4483 -0.5467 0.7072
vn 0.1641 -0.2001 0.9659
vn 0.4550 -0.8520 0.2589
vn 0.3331 -0.6237 0.7072
vn 0.1219 -0.2283 0.9659
vn 0.2802 -0.9244 0.2588
vn 0.2051 -0.6767 0.7071
vn 0.0751 -0.2477 0.9659
vn 0.0463 -0.2587 0.9649
vn 0.0946 -0.9613 0.2588
vn 0.0693 -0.7037 0.7071
vn 0.0547 -0.2470 0.9675
vn -1.0000 -0.0000 -0.0000
vn -0.0000 -1.0000 -0.0000
vn 1.0000 -0.0000 -0.0000
vn -0.0000 1.0000 -0.0000
vn -0.5765 0.4107 -0.7064
vn -0.9013 0.4071 -0.1480
vn -0.9823 0.1875 -0.0000
vn -0.9823 -0.1875 -0.0000
vn -0.9013 -0.4071 -0.1480
vn -0.5765 -0.4107 -0.7064
vn -0.9013 0.4071 0.1480
vn -0.5765 0.4107 0.7064
vn -0.5765 -0.4107 0.7064
vn -0.9013 -0.4071 0.1480
vn 0.3521 0.9360 -0.0000
vn 0.8145 0.5802 -0.0000
vn 0.9823 0.1875 -0.0000
vn 0.3521 -0.9360 -0.0000
vn 0.8145 -0.5802 -0.0000
vn 0.9823 -0.1875 -0.0000
vn -0.3521 0.9360 -0.0000
vn -0.8145 0.5802 -0.0000
vn -0.3521 -0.9360 -0.0000
vn -0.8145 -0.5802 -0.0000
vn -0.3520 -0.9360 -0.0000
vn 0.5254 0.5622 0.6386
vn -0.2022 0.8076 0.5539
vn 0.7512 0.2154 0.6240
vn -0.5254 0.5622 0.6386
vn -0.5255 0.5622 0.6386
vn -0.0000 -0.8828 0.4697
vn -0.7512 0.2154 0.6240
vn -0.8186 -0.0000 0.5743
vn 0.2022 -0.8076 0.5539
vn -0.0000 0.8828 0.4697
vn 0.5255 -0.5622 0.6386
vn -0.2022 -0.8076 0.5539
vn 0.8186 -0.0000 0.5743
vn 0.7512 -0.2154 0.6240
vn -0.5254 -0.5622 0.6386
vn 0.2022 0.8076 0.5539
vn -0.7512 -0.2154 0.6240
vn -0.1640 -0.2001 0.9659
vn 0.1640 0.2001 0.9659
vn 0.9612 0.0947 0.2590
vn 0.5254 -0.5622 0.6386
vt 0.432305 0.400372
vt 0.248461 0.870097
vt 0.417554 0.416155
vt 0.676803 0.791038
vt 0.248613 0.862722
vt 0.424930 0.402487
vt 0.677110 0.804572
vt 0.419531 0.408264
vt 0.676886 0.798893
vt 0.486282 0.416155
vt 0.676803 0.507591
vt 0.471531 0.400372
vt 0.248461 0.909323
vt 0.484306 0.408264
vt 0.676886 0.499736
vt 0.248613 0.916699
vt 0.478907 0.402487
vt 0.677110 0.494057
vt 0.843944 0.884216
vt 0.191668 0.416477
vt 0.411272 0.808627
vt 0.176918 0.400694
vt 0.844026 0.892071
vt 0.189692 0.408585
vt 0.844251 0.897750
vt 0.411423 0.801251
vt 0.184293 0.402808
vt 0.014751 0.400694
vt 0.411272 0.970794
vt 0.843944 0.414413
vt 0.000000 0.416477
vt 0.844251 0.400879
vt 0.411423 0.978169
vt 0.007375 0.402808
vt 0.844026 0.406558
vt 0.001976 0.408585
vt 0.417554 0.453376
vt 0.676803 0.753824
vt 0.432305 0.469159
vt 0.166086 0.722244
vt 0.419531 0.461267
vt 0.676886 0.745898
vt 0.166001 0.714869
vt 0.424930 0.467044
vt 0.677110 0.740025
vt 0.471531 0.469159
vt 0.166086 0.761471
vt 0.486282 0.453376
vt 0.676803 0.544805
vt 0.166001 0.768846
vt 0.478907 0.467044
vt 0.677110 0.558604
vt 0.484306 0.461267
vt 0.676886 0.552731
vt 0.176918 0.653398
vt 0.000085 0.660774
vt 0.843944 0.663114
vt 0.191668 0.637615
vt 0.844251 0.649315
vt 0.000000 0.653399
vt 0.184293 0.651284
vt 0.844026 0.655188
vt 0.189692 0.645507
vt 0.843944 0.635515
vt 0.000000 0.637615
vt 0.000085 0.822941
vt 0.014751 0.653399
vt 0.844026 0.643441
vt 0.001976 0.645507
vt 0.844251 0.649315
vt 0.000000 0.830316
vt 0.007375 0.651284
vt 0.801532 0.326993
vt 0.474890 0.516973
vt 0.798928 0.340095
vt 0.474890 0.530289
vt 0.793821 0.352438
vt 0.474999 0.543141
vt 0.475212 0.555034
vt 0.786405 0.363546
vt 0.475521 0.565513
vt 0.240117 0.657475
vt 0.776967 0.372994
vt 0.240459 0.647157
vt 0.765869 0.380417
vt 0.240713 0.635386
vt 0.753538 0.385531
vt 0.240869 0.622614
vt 0.740447 0.388140
vt 0.240922 0.609331
vt 0.727100 0.388142
vt 0.240869 0.596048
vt 0.714009 0.385538
vt 0.240713 0.583276
vt 0.701678 0.380428
vt 0.240459 0.571504
vt 0.690580 0.373008
vt 0.240117 0.561187
vt 0.457520 0.469196
vt 0.681142 0.363564
vt 0.457211 0.479675
vt 0.673727 0.352458
vt 0.456997 0.491568
vt 0.668619 0.340117
vt 0.456889 0.504420
vt 0.666015 0.327016
vt 0.456889 0.517736
vt 0.666015 0.313657
vt 0.456997 0.531004
vt 0.668619 0.300555
vt 0.457211 0.543715
vt 0.673727 0.288212
vt 0.457520 0.555380
vt 0.681142 0.277104
vt 0.457914 0.565550
vt 0.439987 0.469159
vt 0.690580 0.267657
vt 0.439379 0.479476
vt 0.701678 0.260233
vt 0.438927 0.491247
vt 0.714009 0.255119
vt 0.438649 0.504020
vt 0.727100 0.252511
vt 0.438555 0.517303
vt 0.740447 0.252509
vt 0.438649 0.530586
vt 0.753538 0.255112
vt 0.438927 0.543358
vt 0.765869 0.260223
vt 0.439379 0.555129
vt 0.776967 0.267642
vt 0.439987 0.565447
vt 0.475915 0.469159
vt 0.786405 0.277087
vt 0.475521 0.479329
vt 0.793821 0.288193
vt 0.475212 0.490994
vt 0.798928 0.300533
vt 0.474999 0.503705
vt 0.801532 0.313635
vt 0.865921 0.378882
vt 0.486171 0.517011
vt 0.492789 0.517101
vt 0.865921 0.382634
vt 0.489944 0.517042
vt 0.877750 0.377718
vt 0.486171 0.530327
vt 0.492789 0.529683
vt 0.878483 0.381398
vt 0.489944 0.530161
vt 0.889125 0.374271
vt 0.486280 0.543178
vt 0.492891 0.541826
vt 0.890562 0.377737
vt 0.490051 0.542823
vt 0.891614 0.380274
vt 0.899608 0.368672
vt 0.486493 0.555072
vt 0.901694 0.371792
vt 0.490261 0.554541
vt 0.903221 0.374076
vt 0.908796 0.361138
vt 0.486803 0.565550
vt 0.228835 0.657475
vt 0.911451 0.363791
vt 0.490566 0.564864
vt 0.225076 0.656764
vt 0.913395 0.365733
vt 0.916337 0.351958
vt 0.229177 0.647157
vt 0.919459 0.354042
vt 0.225412 0.646599
vt 0.921744 0.355568
vt 0.921940 0.341484
vt 0.229431 0.635386
vt 0.925409 0.342920
vt 0.225663 0.635002
vt 0.927949 0.343971
vt 0.925390 0.330119
vt 0.229587 0.622614
vt 0.222977 0.621882
vt 0.929073 0.330851
vt 0.931769 0.331387
vt 0.225817 0.622418
vt 0.926555 0.318300
vt 0.229640 0.609331
vt 0.930310 0.318300
vt 0.223027 0.609331
vt 0.225869 0.609331
vt 0.925390 0.306481
vt 0.229587 0.596048
vt 0.222977 0.596780
vt 0.929073 0.305749
vt 0.931769 0.305213
vt 0.225817 0.596244
vt 0.921940 0.295116
vt 0.229431 0.583276
vt 0.925409 0.293681
vt 0.927949 0.292630
vt 0.225663 0.583660
vt 0.916337 0.284643
vt 0.229177 0.571504
vt 0.919459 0.282558
vt 0.921745 0.281032
vt 0.225412 0.572063
vt 0.908796 0.275462
vt 0.468801 0.469159
vt 0.228835 0.561187
vt 0.911451 0.272809
vt 0.225076 0.561898
vt 0.913395 0.270867
vt 0.472564 0.469845
vt 0.899608 0.267928
vt 0.468492 0.479637
vt 0.901694 0.264808
vt 0.903221 0.262525
vt 0.472259 0.480168
vt 0.889125 0.262330
vt 0.468279 0.491531
vt 0.890562 0.258863
vt 0.474890 0.492883
vt 0.891614 0.256326
vt 0.472049 0.491886
vt 0.877750 0.258882
vt 0.468170 0.504382
vt 0.878483 0.255202
vt 0.474787 0.505026
vt 0.471942 0.504548
vt 0.865921 0.257718
vt 0.468170 0.517698
vt 0.474787 0.517608
vt 0.865921 0.253966
vt 0.471942 0.517667
vt 0.854092 0.258882
vt 0.468279 0.530966
vt 0.474890 0.530145
vt 0.853360 0.255202
vt 0.472049 0.530740
vt 0.852823 0.252508
vt 0.842718 0.262330
vt 0.468492 0.543677
vt 0.841281 0.258863
vt 0.472259 0.543263
vt 0.840229 0.256326
vt 0.832235 0.267928
vt 0.468801 0.555342
vt 0.830149 0.264808
vt 0.472564 0.554755
vt 0.828622 0.262525
vt 0.823047 0.275462
vt 0.469195 0.565513
vt 0.451249 0.469159
vt 0.820391 0.272809
vt 0.472953 0.564776
vt 0.455024 0.469870
vt 0.818448 0.270867
vt 0.815506 0.284642
vt 0.450641 0.479476
vt 0.812384 0.282558
vt 0.454425 0.480035
vt 0.810098 0.281032
vt 0.809903 0.295116
vt 0.450189 0.491247
vt 0.456889 0.492683
vt 0.806434 0.293680
vt 0.803894 0.292629
vt 0.453980 0.491632
vt 0.806452 0.306481
vt 0.449911 0.504020
vt 0.456626 0.504752
vt 0.802769 0.305749
vt 0.453706 0.504216
vt 0.805287 0.318300
vt 0.449817 0.517303
vt 0.801532 0.318300
vt 0.456537 0.517303
vt 0.453613 0.517303
vt 0.806452 0.330119
vt 0.449911 0.530586
vt 0.802769 0.330851
vt 0.456626 0.529854
vt 0.453706 0.530389
vt 0.809903 0.341484
vt 0.450189 0.543358
vt 0.456889 0.541922
vt 0.806433 0.342920
vt 0.803894 0.343971
vt 0.453980 0.542973
vt 0.815506 0.351958
vt 0.450641 0.555129
vt 0.812384 0.354042
vt 0.810098 0.355568
vt 0.454425 0.554571
vt 0.823047 0.361138
vt 0.487197 0.469196
vt 0.451249 0.565447
vt 0.820391 0.363791
vt 0.455024 0.564736
vt 0.818447 0.365733
vt 0.490954 0.469933
vt 0.832235 0.368672
vt 0.486803 0.479367
vt 0.830149 0.371792
vt 0.828621 0.374075
vt 0.490566 0.479954
vt 0.842718 0.374271
vt 0.486493 0.491032
vt 0.841281 0.377737
vt 0.840229 0.380274
vt 0.490261 0.491446
vt 0.854092 0.377718
vt 0.486280 0.503743
vt 0.853360 0.381398
vt 0.492891 0.504564
vt 0.852823 0.384092
vt 0.490051 0.503969
vt 0.191668 0.400766
vt 0.417554 0.629652
vt 0.043984 0.073007
vt 0.207323 0.655367
vt 0.204477 0.073007
vt 0.417554 0.469159
vt 0.207323 0.400701
vt 0.204477 0.327687
vt 0.222977 0.561187
vt 0.043984 0.327687
vt 0.191668 0.655432
vt 0.222977 0.400693
vt 0.666015 0.237403
vt 0.483840 0.000000
vt 0.676776 0.252509
vt 0.412211 0.801133
vt 0.667457 0.244956
vt 0.491393 0.000103
vt 0.671395 0.250485
vt 0.417554 0.801044
vt 0.496922 0.000386
vt 0.676776 0.000000
vt 0.502265 0.400760
vt 0.666015 0.015105
vt 0.261542 0.000000
vt 0.248461 0.000386
vt 0.671395 0.002024
vt 0.496922 0.400672
vt 0.667457 0.007553
vt 0.253990 0.000103
vt 0.412211 0.400460
vt 0.507682 0.400879
vt 0.496922 0.415984
vt 0.483840 0.399986
vt 0.496922 0.400372
vt 0.502302 0.402903
vt 0.417554 0.400372
vt 0.498363 0.408432
vt 0.491393 0.400090
vt 0.496922 0.638282
vt 0.261542 0.399986
vt 0.507682 0.653388
vt 0.502265 0.000088
vt 0.498363 0.645835
vt 0.253990 0.400090
vt 0.502302 0.651364
vt 0.496922 0.000000
vt 0.248461 0.400372
vt 0.835136 0.252508
vt 0.253877 0.801251
vt 0.235379 0.376724
vt 0.845897 0.237403
vt 0.235379 0.400694
vt 0.840516 0.250485
vt 0.248461 0.397265
vt 0.248461 0.797960
vt 0.242932 0.388651
vt 0.013081 0.376724
vt 0.835136 0.000000
vt 0.660599 0.400879
vt 0.845897 0.015105
vt 0.013081 0.400694
vt 0.005529 0.388651
vt 0.840516 0.002024
vt 0.666015 0.397588
vt 0.000000 0.397265
vt 0.235379 0.023970
vt 0.666043 0.400879
vt 0.253877 0.400579
vt 0.676803 0.415985
vt 0.235379 0.000000
vt 0.242932 0.011927
vt 0.671423 0.402903
vt 0.248461 0.403710
vt 0.248461 0.002994
vt 0.666043 0.653388
vt 0.660599 0.000207
vt 0.013081 0.023970
vt 0.676803 0.638283
vt 0.013081 0.000000
vt 0.671423 0.651364
vt 0.000000 0.002994
vt 0.666015 0.003338
vt 0.005529 0.011927
vt 0.427794 0.629652
vt 0.201907 0.400774
vt 0.438555 0.614547
vt 0.640286 0.908067
vt 0.653368 0.908284
vt 0.433175 0.627628
vt 0.207323 0.400694
vt 0.437113 0.622100
vt 0.647839 0.908125
vt 0.438555 0.484264
vt 0.510003 0.908067
vt 0.427794 0.469159
vt 0.217561 0.655359
vt 0.437113 0.476711
vt 0.502451 0.908125
vt 0.433175 0.471182
vt 0.222977 0.655440
vt 0.496922 0.908284
vt 0.217561 0.400694
vt 0.233217 0.561187
vt 0.243977 0.546082
vt 0.510003 0.653388
vt 0.496922 0.653605
vt 0.238597 0.559163
vt 0.222977 0.400774
vt 0.242536 0.553634
vt 0.502451 0.653446
vt 0.243977 0.415799
vt 0.640286 0.653388
vt 0.233217 0.400693
vt 0.201907 0.655440
vt 0.242536 0.408246
vt 0.647839 0.653446
vt 0.238597 0.402717
vt 0.207323 0.655360
vt 0.653368 0.653605
vt 0.844330 0.628077
vt 0.185854 0.413429
vt 0.187750 0.420998
vt 0.844251 0.620475
vt 0.180676 0.407888
vt 0.000082 0.830316
vt 0.000000 0.837390
vt 0.173602 0.405860
vt 0.003919 0.420998
vt 0.933490 0.847672
vt 0.933411 0.855274
vt 0.005814 0.413429
vt 0.010992 0.407888
vt 0.000082 1.000000
vt 0.018066 0.405860
vt 0.000000 0.992926
vt 0.187750 0.633094
vt 0.844251 0.408413
vt 0.844330 0.400879
vt 0.185854 0.640663
vt 0.180676 0.646204
vt 0.937336 0.000000
vt 0.173602 0.648232
vt 0.937481 0.007074
vt 0.933411 0.628077
vt 0.005814 0.640663
vt 0.003919 0.633094
vt 0.933490 0.635610
vt 0.010992 0.646204
vt 0.937336 0.169684
vt 0.937481 0.162610
vt 0.018066 0.648232
vt 0.933490 0.571393
vt 0.140339 0.470876
vt 0.141276 0.474618
vt 0.933451 0.567635
vt 0.137778 0.468136
vt 0.089781 0.873214
vt 0.134281 0.467134
vt 0.089741 0.876711
vt 0.050393 0.474618
vt 0.844290 0.794832
vt 0.844251 0.798590
vt 0.051330 0.470876
vt 0.053890 0.468137
vt 0.089781 0.957102
vt 0.057387 0.467134
vt 0.089741 0.953605
vt 0.141276 0.579474
vt 0.933451 0.462795
vt 0.933490 0.459071
vt 0.140339 0.583216
vt 0.137778 0.585956
vt 0.845897 0.042898
vt 0.134281 0.586958
vt 0.845969 0.046395
vt 0.051330 0.583216
vt 0.844251 0.686268
vt 0.050393 0.579474
vt 0.844290 0.689993
vt 0.053890 0.585956
vt 0.845897 0.126786
vt 0.057387 0.586958
vt 0.845969 0.123289
s 1
usemtl Grey
f 20/44/1 19/41/1 23/51/1
f 25/56/2 21/47/2 30/66/2
f 22/49/3 14/30/3 29/64/3
f 1/2/4 13/29/4 6/13/4
f 253/445/5 29/65/5 14/31/5
f 9/19/6 4/9/6 2/4/6
f 11/23/7 3/7/7 4/9/7
f 12/26/8 1/2/8 3/5/8
f 7/15/9 14/30/9 5/11/9
f 8/18/10 16/35/10 7/15/10
f 6/13/11 15/33/11 8/16/11
f 19/42/12 26/57/12 17/38/12
f 20/45/13 28/62/13 19/42/13
f 18/40/14 27/60/14 20/43/14
f 29/64/15 24/54/15 22/49/15
f 31/68/16 23/52/16 24/54/16
f 32/71/17 21/47/17 23/50/17
f 2/4/18 26/57/18 9/19/18
f 198/331/1 202/340/1 201/338/1
f 195/324/159 223/383/159 214/367/159
f 215/369/159 220/378/159 196/326/159
f 219/376/160 210/359/160 228/393/160
f 206/350/161 202/341/161 197/330/161
f 205/348/5 210/358/5 206/349/5
f 230/396/159 225/387/159 194/321/159
f 193/319/159 218/374/159 229/394/159
f 213/365/163 215/368/163 216/370/163
f 216/371/164 215/369/164 217/373/164
f 217/373/165 215/369/165 214/367/165
f 218/374/166 220/378/166 221/379/166
f 221/379/167 220/378/167 222/382/167
f 222/380/168 220/377/168 219/375/168
f 223/383/165 225/387/165 226/388/165
f 226/388/169 225/387/169 227/391/169
f 227/389/170 225/386/170 224/384/170
f 228/392/171 230/395/171 231/397/171
f 231/398/172 230/396/172 232/400/172
f 232/400/166 230/396/166 229/394/166
f 207/353/173 198/332/173 205/347/173
f 208/355/174 200/337/174 207/351/174
f 206/350/175 199/334/175 208/355/175
f 203/344/176 210/359/176 201/339/176
f 204/346/177 212/364/177 203/342/177
f 202/341/178 211/361/178 204/346/178
f 216/372/179 224/385/179 213/366/179
f 217/373/180 227/391/180 216/371/180
f 214/367/165 226/388/165 217/373/165
f 228/393/181 222/381/181 219/376/181
f 232/400/182 222/382/182 231/398/182
f 232/400/166 218/374/166 221/379/166
f 198/332/162 224/385/162 205/347/162
f 261/462/184 279/497/184 263/465/184
f 30/67/5 260/459/5 25/55/5
f 259/457/5 28/63/5 27/61/5
f 257/453/5 9/20/5 26/58/5
f 256/451/5 15/34/5 13/28/5
f 11/24/5 251/441/5 12/27/5
f 31/69/5 263/465/5 32/72/5
f 254/448/5 14/31/5 16/36/5
f 260/459/5 27/61/5 25/55/5
f 10/22/5 256/451/5 13/28/5
f 12/27/5 252/444/5 10/22/5
f 258/456/5 26/58/5 28/63/5
f 9/20/5 249/438/5 11/24/5
f 32/72/5 264/468/5 30/67/5
f 255/449/5 16/36/5 15/34/5
f 29/65/5 261/462/5 31/69/5
f 270/479/185 253/446/185 254/447/185
f 263/466/186 280/500/186 264/467/186
f 271/481/187 254/448/188 255/449/188
f 273/486/189 250/440/189 257/454/189
f 272/484/190 255/450/190 256/452/190
f 268/476/191 256/452/191 252/443/191
f 274/487/192 257/454/192 258/455/192
f 269/478/193 262/464/193 253/446/193
f 275/489/194 258/456/194 259/457/194
f 250/440/195 265/469/195 249/437/195
f 280/500/196 260/460/196 264/467/196
f 276/492/197 259/458/197 260/460/197
f 249/438/198 267/473/198 251/441/198
f 262/464/199 277/494/199 261/461/199
f 251/442/200 268/476/200 252/443/200
f 19/41/1 17/37/1 22/48/1
f 17/37/1 2/3/1 22/48/1
f 2/3/1 4/8/1 7/14/1
f 4/8/1 3/6/1 7/14/1
f 3/6/1 1/1/1 6/12/1
f 6/12/1 8/17/1 3/6/1
f 8/17/1 7/14/1 3/6/1
f 7/14/1 5/10/1 2/3/1
f 5/10/1 22/48/1 2/3/1
f 22/48/1 24/53/1 19/41/1
f 24/53/1 23/51/1 19/41/1
f 23/51/1 21/46/1 18/39/1
f 18/39/1 20/44/1 23/51/1
f 25/56/2 18/40/2 21/47/2
f 22/49/3 5/11/3 14/30/3
f 1/2/4 10/21/4 13/29/4
f 253/445/5 262/463/5 29/65/5
f 9/19/6 11/23/6 4/9/6
f 11/23/7 12/25/7 3/7/7
f 12/26/8 10/21/8 1/2/8
f 7/15/9 16/35/9 14/30/9
f 8/18/10 15/32/10 16/35/10
f 6/13/11 13/29/11 15/33/11
f 19/42/12 28/62/12 26/57/12
f 20/45/13 27/59/13 28/62/13
f 18/40/14 25/56/14 27/60/14
f 29/64/15 31/68/15 24/54/15
f 31/68/16 32/70/16 23/52/16
f 32/71/17 30/66/17 21/47/17
f 2/4/18 17/38/18 26/57/18
f 215/368/1 213/365/1 219/375/1
f 213/365/1 198/331/1 219/375/1
f 198/331/1 200/335/1 197/329/1
f 200/335/1 199/333/1 197/329/1
f 197/329/1 202/340/1 198/331/1
f 202/340/1 204/345/1 203/343/1
f 203/343/1 201/338/1 202/340/1
f 201/338/1 219/375/1 198/331/1
f 219/375/1 220/377/1 215/368/1
f 195/324/159 194/321/159 223/383/159
f 220/378/159 218/374/159 196/326/159
f 196/326/159 195/324/159 215/369/159
f 195/324/159 214/367/159 215/369/159
f 219/376/160 201/339/160 210/359/160
f 206/350/161 209/357/161 202/341/161
f 207/352/5 205/348/5 206/349/5
f 205/348/5 224/384/5 210/358/5
f 224/384/5 225/386/5 230/395/5
f 230/395/5 228/392/5 224/384/5
f 228/392/5 210/358/5 224/384/5
f 210/358/5 212/362/5 209/356/5
f 212/362/5 211/360/5 209/356/5
f 209/356/5 206/349/5 210/358/5
f 206/349/5 208/354/5 207/352/5
f 225/387/159 223/383/159 194/321/159
f 194/321/159 193/319/159 230/396/159
f 193/319/159 229/394/159 230/396/159
f 193/319/159 196/326/159 218/374/159
f 207/353/173 200/336/173 198/332/173
f 208/355/174 199/334/174 200/337/174
f 206/350/175 197/330/175 199/334/175
f 203/344/176 212/363/176 210/359/176
f 204/346/177 211/361/177 212/364/177
f 202/341/178 209/357/178 211/361/178
f 216/372/179 227/390/179 224/385/179
f 217/373/180 226/388/180 227/391/180
f 214/367/165 223/383/165 226/388/165
f 228/393/181 231/399/181 222/381/181
f 232/400/182 221/379/182 222/382/182
f 232/400/166 229/394/166 218/374/166
f 198/332/162 213/366/162 224/385/162
f 261/462/184 277/493/184 279/497/184
f 30/67/5 264/468/5 260/459/5
f 259/457/5 258/456/5 28/63/5
f 257/453/5 250/439/5 9/20/5
f 256/451/5 255/449/5 15/34/5
f 11/24/5 249/438/5 251/441/5
f 31/69/5 261/462/5 263/465/5
f 254/448/5 253/445/5 14/31/5
f 260/459/5 259/457/5 27/61/5
f 10/22/5 252/444/5 256/451/5
f 12/27/5 251/441/5 252/444/5
f 258/456/5 257/453/5 26/58/5
f 9/20/5 250/439/5 249/438/5
f 32/72/5 263/465/5 264/468/5
f 255/449/5 254/448/5 16/36/5
f 29/65/5 262/463/5 261/462/5
f 270/479/185 269/478/185 253/446/185
f 263/466/186 279/498/186 280/500/186
f 271/481/187 270/480/187 254/448/188
f 273/486/189 266/472/189 250/440/189
f 272/484/190 271/482/190 255/450/190
f 268/476/191 272/484/191 256/452/191
f 274/487/192 273/486/192 257/454/192
f 269/478/193 278/496/193 262/464/193
f 275/489/194 274/488/204 258/456/194
f 250/440/195 266/472/195 265/469/195
f 280/500/196 276/492/196 260/460/196
f 276/492/197 275/490/197 259/458/197
f 249/438/198 265/470/198 267/473/198
f 262/464/199 278/496/199 277/494/199
f 251/442/200 267/474/200 268/476/200
usemtl Back
f 66/142/19 64/139/19 190/312/19
f 78/158/20 35/78/20 74/152/20
f 82/163/21 36/79/21 78/158/21
f 86/170/22 37/82/22 82/164/22
f 90/175/23 38/84/23 86/170/23
f 94/180/24 39/86/24 90/175/24
f 94/180/25 41/90/25 40/88/25
f 102/191/26 41/90/26 98/186/26
f 106/197/27 42/92/27 102/191/27
f 110/202/28 43/94/28 106/197/28
f 114/208/29 44/96/29 110/202/29
f 118/214/30 45/99/30 114/207/30
f 122/219/31 46/101/31 118/214/31
f 126/225/32 47/103/32 122/219/32
f 130/230/33 48/105/33 126/225/33
f 134/235/34 49/107/34 130/230/34
f 138/241/35 50/109/35 134/235/35
f 142/246/36 51/111/36 138/241/36
f 146/251/37 52/113/37 142/246/37
f 150/258/38 53/116/38 146/252/38
f 154/263/39 54/118/39 150/258/39
f 158/269/40 55/120/40 154/263/40
f 162/274/41 56/122/41 158/269/41
f 166/279/42 57/124/42 162/274/42
f 170/284/43 58/126/43 166/279/43
f 174/290/44 59/128/44 170/284/44
f 178/296/45 60/130/45 174/290/45
f 182/302/46 61/133/46 178/295/46
f 186/307/47 62/135/47 182/302/47
f 190/312/48 63/137/48 186/307/48
f 64/140/1 33/73/1 49/108/1
f 74/152/49 34/76/49 70/147/49
f 70/147/50 33/74/50 66/142/50
f 66/142/51 72/150/51 70/147/51
f 68/145/52 71/148/52 72/150/52
f 67/144/53 69/146/54 71/149/55
f 70/147/56 76/155/56 74/152/56
f 72/150/57 75/153/57 76/155/57
f 71/149/55 73/151/58 75/154/58
f 74/152/59 80/160/59 78/158/59
f 76/156/60 79/159/60 80/161/60
f 75/154/61 77/157/61 79/159/61
f 78/158/62 84/166/63 82/163/63
f 80/161/64 83/165/64 84/168/64
f 79/159/65 81/162/65 83/165/65
f 82/164/66 88/172/66 86/170/66
f 84/168/67 87/171/67 88/173/67
f 83/165/68 85/169/68 87/171/68
f 86/170/69 92/177/69 90/175/69
f 88/173/70 91/176/70 92/178/70
f 87/171/71 89/174/71 91/176/71
f 90/175/72 96/184/72 94/180/72
f 92/178/73 95/182/73 96/183/73
f 91/176/74 93/179/74 95/182/74
f 94/180/75 100/189/75 98/186/75
f 96/184/76 99/188/76 100/189/76
f 95/182/77 97/185/77 99/187/77
f 100/189/78 102/191/78 98/186/78
f 99/188/79 104/195/79 100/189/79
f 97/185/80 103/193/80 99/187/80
f 104/195/81 106/197/81 102/191/81
f 103/193/82 108/199/82 104/194/82
f 101/190/83 107/198/83 103/193/83
f 108/200/84 110/202/84 106/197/84
f 107/198/85 112/204/85 108/199/85
f 105/196/86 111/203/86 107/198/86
f 112/205/87 114/208/87 110/202/87
f 111/203/88 116/211/88 112/204/88
f 109/201/89 115/209/89 111/203/89
f 116/212/90 118/214/90 114/207/90
f 115/209/91 120/216/91 116/211/91
f 113/206/92 119/215/92 115/209/93
f 120/217/94 122/219/94 118/214/94
f 119/215/95 124/222/95 120/216/95
f 117/213/96 123/220/96 119/215/96
f 124/223/97 126/225/97 122/219/97
f 123/221/98 128/228/98 124/223/98
f 121/218/99 127/226/100 123/220/99
f 128/228/101 130/230/101 126/225/101
f 127/227/102 132/233/103 128/228/102
f 125/224/104 131/232/105 127/226/100
f 130/230/106 136/238/106 134/235/106
f 132/233/107 135/236/107 136/238/107
f 131/232/105 133/234/108 135/237/109
f 134/235/110 140/243/110 138/241/110
f 136/239/111 139/242/111 140/244/111
f 135/237/109 137/240/112 139/242/112
f 138/241/113 144/248/113 142/246/113
f 140/244/114 143/247/114 144/249/114
f 139/242/115 141/245/115 143/247/115
f 142/246/116 148/254/117 146/251/117
f 144/249/118 147/253/118 148/256/118
f 143/247/119 145/250/119 147/253/119
f 146/252/120 152/260/120 150/258/120
f 148/256/121 151/259/121 152/261/121
f 147/253/122 149/257/122 151/259/122
f 150/258/123 156/267/123 154/263/123
f 152/261/124 155/265/124 156/266/124
f 151/259/125 153/262/125 155/265/125
f 154/263/126 160/272/126 158/269/126
f 156/267/127 159/270/127 160/272/127
f 155/265/128 157/268/128 159/271/128
f 158/269/129 164/277/129 162/274/129
f 160/272/130 163/276/130 164/277/130
f 159/271/131 161/273/131 163/275/131
f 164/277/132 166/279/133 162/274/132
f 163/276/134 168/282/134 164/277/134
f 161/273/135 167/280/135 163/275/135
f 168/282/136 170/284/136 166/279/136
f 167/281/137 172/288/137 168/282/137
f 165/278/138 171/286/138 167/280/138
f 172/288/139 174/290/139 170/284/139
f 171/286/140 176/292/140 172/287/140
f 169/283/141 175/291/141 171/286/141
f 176/293/142 178/296/142 174/290/142
f 175/291/143 180/299/143 176/292/143
f 173/289/144 179/297/144 175/291/144
f 180/300/145 182/302/146 178/295/145
f 179/297/147 184/304/147 180/299/147
f 177/294/148 183/303/148 179/297/148
f 184/305/149 186/307/149 182/302/149
f 183/303/150 188/309/150 184/304/150
f 181/301/151 187/308/151 183/303/151
f 188/310/152 190/312/152 186/307/152
f 187/308/153 192/315/153 188/309/153
f 185/306/154 191/313/155 187/308/154
f 192/316/156 66/142/156 190/312/156
f 191/314/157 68/145/157 192/316/157
f 189/311/158 67/144/53 191/313/155
f 77/157/5 73/151/5 117/213/5
f 241/419/162 194/320/162 195/323/162
f 235/406/5 240/416/5 234/403/5
f 233/402/160 196/327/160 193/317/160
f 242/422/159 234/404/159 237/411/159
f 243/424/1 248/434/1 242/421/1
f 243/425/179 238/413/179 241/419/179
f 244/427/180 240/418/180 243/423/180
f 242/422/165 239/415/165 244/427/165
f 235/407/183 246/431/183 233/402/183
f 236/409/182 248/436/182 235/405/182
f 234/404/166 247/433/166 236/409/166
f 268/475/5 267/473/5 265/470/5
f 66/142/19 33/74/19 64/139/19
f 78/158/20 36/79/20 35/78/20
f 82/163/21 37/81/21 36/79/21
f 86/170/22 38/84/22 37/82/22
f 90/175/23 39/86/23 38/84/23
f 94/180/24 40/88/24 39/86/24
f 94/180/25 98/186/25 41/90/25
f 102/191/26 42/92/26 41/90/26
f 106/197/27 43/94/27 42/92/27
f 110/202/28 44/96/28 43/94/28
f 114/208/29 45/98/29 44/96/29
f 118/214/30 46/101/30 45/99/30
f 122/219/31 47/103/31 46/101/31
f 126/225/32 48/105/32 47/103/32
f 130/230/33 49/107/33 48/105/33
f 134/235/34 50/109/34 49/107/34
f 138/241/35 51/111/35 50/109/35
f 142/246/36 52/113/36 51/111/36
f 146/251/37 53/115/37 52/113/37
f 150/258/38 54/118/38 53/116/38
f 154/263/39 55/120/39 54/118/39
f 158/269/40 56/122/40 55/120/40
f 162/274/41 57/124/41 56/122/41
f 166/279/42 58/126/42 57/124/42
f 170/284/43 59/128/43 58/126/43
f 174/290/44 60/130/44 59/128/44
f 178/296/45 61/132/45 60/130/45
f 182/302/46 62/135/46 61/133/46
f 186/307/47 63/137/47 62/135/47
f 190/312/48 64/139/48 63/137/48
f 33/73/1 34/75/1 48/106/1
f 34/75/1 35/77/1 47/104/1
f 35/77/1 36/80/1 46/102/1
f 36/80/1 37/83/1 45/100/1
f 37/83/1 38/85/1 44/97/1
f 38/85/1 39/87/1 43/95/1
f 39/87/1 40/89/1 42/93/1
f 40/89/1 41/91/1 42/93/1
f 42/93/1 43/95/1 39/87/1
f 43/95/1 44/97/1 38/85/1
f 44/97/1 45/100/1 37/83/1
f 45/100/1 46/102/1 36/80/1
f 46/102/1 47/104/1 35/77/1
f 47/104/1 48/106/1 34/75/1
f 48/106/1 49/108/1 33/73/1
f 49/108/1 50/110/1 64/140/1
f 50/110/1 51/112/1 63/138/1
f 51/112/1 52/114/1 62/136/1
f 52/114/1 53/117/1 61/134/1
f 53/117/1 54/119/1 60/131/1
f 54/119/1 55/121/1 59/129/1
f 55/121/1 56/123/1 59/129/1
f 56/123/1 57/125/1 58/127/1
f 59/129/1 56/123/1 58/127/1
f 59/129/1 60/131/1 54/119/1
f 60/131/1 61/134/1 53/117/1
f 61/134/1 62/136/1 52/114/1
f 62/136/1 63/138/1 51/112/1
f 63/138/1 64/140/1 50/110/1
f 74/152/49 35/78/49 34/76/49
f 70/147/50 34/76/50 33/74/50
f 66/142/51 68/145/51 72/150/51
f 68/145/52 67/143/52 71/148/52
f 67/144/53 65/141/53 69/146/54
f 70/147/56 72/150/56 76/155/56
f 72/150/57 71/148/57 75/153/57
f 71/149/55 69/146/54 73/151/58
f 74/152/59 76/155/59 80/160/59
f 76/156/60 75/154/60 79/159/60
f 75/154/61 73/151/61 77/157/61
f 78/158/62 80/160/62 84/166/63
f 80/161/64 79/159/64 83/165/64
f 79/159/65 77/157/201 81/162/65
f 82/164/66 84/167/66 88/172/66
f 84/168/67 83/165/67 87/171/67
f 83/165/68 81/162/68 85/169/68
f 86/170/69 88/172/69 92/177/69
f 88/173/70 87/171/70 91/176/70
f 87/171/71 85/169/71 89/174/71
f 90/175/72 92/177/72 96/184/72
f 92/178/73 91/176/73 95/182/73
f 91/176/74 89/174/74 93/179/74
f 94/180/75 96/184/75 100/189/75
f 96/184/76 95/181/76 99/188/76
f 95/182/77 93/179/77 97/185/77
f 100/189/78 104/195/78 102/191/78
f 99/188/79 103/192/79 104/195/79
f 97/185/80 101/190/80 103/193/80
f 104/195/81 108/200/81 106/197/81
f 103/193/82 107/198/82 108/199/82
f 101/190/83 105/196/83 107/198/83
f 108/200/84 112/205/84 110/202/84
f 107/198/85 111/203/85 112/204/85
f 105/196/86 109/201/86 111/203/86
f 112/205/87 116/210/87 114/208/87
f 111/203/88 115/209/88 116/211/88
f 109/201/89 113/206/89 115/209/89
f 116/212/90 120/217/90 118/214/90
f 115/209/91 119/215/91 120/216/91
f 113/206/92 117/213/92 119/215/92
f 120/217/94 124/223/94 122/219/94
f 119/215/95 123/220/95 124/222/95
f 117/213/96 121/218/96 123/220/96
f 124/223/97 128/228/97 126/225/97
f 123/221/98 127/227/98 128/228/98
f 121/218/99 125/224/104 127/226/100
f 128/228/101 132/233/101 130/230/101
f 127/227/102 131/231/103 132/233/103
f 125/224/104 129/229/105 131/232/105
f 130/230/106 132/233/106 136/238/106
f 132/233/107 131/231/107 135/236/107
f 131/232/105 129/229/105 133/234/108
f 134/235/110 136/238/110 140/243/110
f 136/239/111 135/237/111 139/242/111
f 135/237/109 133/234/108 137/240/112
f 138/241/113 140/243/113 144/248/113
f 140/244/114 139/242/114 143/247/114
f 139/242/115 137/240/115 141/245/115
f 142/246/116 144/248/116 148/254/117
f 144/249/118 143/247/118 147/253/118
f 143/247/119 141/245/202 145/250/119
f 146/252/120 148/255/120 152/260/120
f 148/256/121 147/253/121 151/259/121
f 147/253/122 145/250/122 149/257/122
f 150/258/123 152/260/123 156/267/123
f 152/261/124 151/259/124 155/265/124
f 151/259/125 149/257/125 153/262/125
f 154/263/126 156/267/126 160/272/126
f 156/267/127 155/264/127 159/270/127
f 155/265/128 153/262/128 157/268/128
f 158/269/129 160/272/203 164/277/129
f 160/272/130 159/270/130 163/276/130
f 159/271/131 157/268/131 161/273/131
f 164/277/132 168/282/133 166/279/133
f 163/276/134 167/281/134 168/282/134
f 161/273/135 165/278/135 167/280/135
f 168/282/136 172/288/136 170/284/136
f 167/281/137 171/285/137 172/288/137
f 165/278/138 169/283/138 171/286/138
f 172/288/139 176/293/139 174/290/139
f 171/286/140 175/291/140 176/292/140
f 169/283/141 173/289/141 175/291/141
f 176/293/142 180/298/142 178/296/142
f 175/291/143 179/297/143 180/299/143
f 173/289/144 177/294/144 179/297/144
f 180/300/145 184/305/146 182/302/146
f 179/297/147 183/303/147 184/304/147
f 177/294/148 181/301/148 183/303/148
f 184/305/149 188/310/149 186/307/149
f 183/303/150 187/308/150 188/309/150
f 181/301/151 185/306/151 187/308/151
f 188/310/152 192/316/152 190/312/152
f 187/308/153 191/313/153 192/315/153
f 185/306/154 189/311/158 191/313/155
f 192/316/156 68/145/156 66/142/156
f 191/314/157 67/143/157 68/145/157
f 189/311/158 65/141/53 67/144/53
f 69/146/5 65/141/5 129/229/5
f 65/141/5 189/311/5 133/234/5
f 189/311/5 185/306/5 133/234/5
f 185/306/5 181/301/5 137/240/5
f 133/234/5 185/306/5 137/240/5
f 181/301/5 177/294/5 145/250/5
f 177/294/5 173/289/5 149/257/5
f 173/289/5 169/283/5 149/257/5
f 169/283/5 165/278/5 153/262/5
f 149/257/5 169/283/5 153/262/5
f 165/278/5 161/273/5 157/268/5
f 157/268/5 153/262/5 165/278/5
f 149/257/5 145/250/5 177/294/5
f 145/250/5 141/245/5 181/301/5
f 141/245/5 137/240/5 181/301/5
f 133/234/5 129/229/5 65/141/5
f 129/229/5 125/224/5 69/146/5
f 125/224/5 121/218/5 69/146/5
f 121/218/5 117/213/5 73/151/5
f 69/146/5 121/218/5 73/151/5
f 117/213/5 113/206/5 81/162/5
f 113/206/5 109/201/5 85/169/5
f 109/201/5 105/196/5 85/169/5
f 105/196/5 101/190/5 89/174/5
f 85/169/5 105/196/5 89/174/5
f 101/190/5 97/185/5 93/179/5
f 93/179/5 89/174/5 101/190/5
f 85/169/5 81/162/5 113/206/5
f 81/162/5 77/157/5 117/213/5
f 241/419/162 238/413/162 194/320/162
f 193/318/5 194/322/5 238/412/5
f 238/412/5 240/416/5 233/401/5
f 240/416/5 239/414/5 237/410/5
f 233/401/5 240/416/5 235/406/5
f 237/410/5 234/403/5 240/416/5
f 234/403/5 236/408/5 235/406/5
f 233/401/5 193/318/5 238/412/5
f 233/402/160 246/431/160 196/327/160
f 242/422/159 245/429/159 234/404/159
f 195/325/1 196/328/1 246/430/1
f 246/430/1 248/434/1 241/420/1
f 248/434/1 247/432/1 245/428/1
f 241/420/1 248/434/1 243/424/1
f 245/428/1 242/421/1 248/434/1
f 242/421/1 244/426/1 243/424/1
f 241/420/1 195/325/1 246/430/1
f 243/425/179 240/417/179 238/413/179
f 244/427/180 239/415/180 240/418/180
f 242/422/165 237/411/165 239/415/165
f 235/407/183 248/435/183 246/431/183
f 236/409/182 247/433/182 248/436/182
f 234/404/166 245/429/166 247/433/166
f 265/470/5 266/471/5 269/477/5
f 266/471/5 273/485/5 269/477/5
f 273/485/5 274/488/5 277/493/5
f 274/488/5 275/489/5 276/491/5
f 277/493/5 274/488/5 276/491/5
f 276/491/5 280/499/5 277/493/5
f 280/499/5 279/497/5 277/493/5
f 277/493/5 278/495/5 273/485/5
f 278/495/5 269/477/5 273/485/5
f 269/477/5 270/480/5 265/470/5
f 270/480/5 271/481/5 272/483/5
f 265/470/5 270/480/5 272/483/5
f 272/483/5 268/475/5 265/470/5
