# Blender 3.2.0
# www.blender.org
o Circle
v 0.050113 -0.044352 -0.041536
v -0.050113 -0.044352 -0.041536
v 0.050113 0.100000 -0.041536
v -0.050113 0.100000 -0.041536
v 0.050113 0.039027 -0.342015
v -0.050113 0.039027 -0.342015
v 0.050113 0.100000 -0.342015
v -0.050113 0.100000 -0.342015
v -0.050113 0.100000 -0.192015
v -0.050113 0.039514 -0.249696
v 0.050113 0.039514 -0.249696
v 0.050113 0.100000 -0.192015
v 0.000000 0.200000 0.000000
v -0.100000 0.173205 0.000000
v -0.173205 0.100000 0.000000
v -0.200000 -0.000000 -0.000000
v -0.173205 -0.100000 -0.000000
v -0.100000 -0.173205 -0.000000
v 0.000000 -0.200000 -0.000000
v 0.100000 -0.173205 -0.000000
v 0.173205 -0.100000 -0.000000
v 0.200000 0.000000 0.000000
v 0.173205 0.100000 0.000000
v 0.100000 0.173205 0.000000
v 0.000000 0.171828 -0.042359
v -0.085914 0.148807 -0.042359
v -0.148807 0.085914 -0.042359
v -0.171828 -0.000000 -0.042359
v -0.148807 -0.085914 -0.042359
v -0.085914 -0.148807 -0.042359
v 0.000000 -0.171828 -0.042359
v 0.085914 -0.148807 -0.042359
v 0.148807 -0.085914 -0.042359
v 0.171828 0.000000 -0.042359
v 0.148807 0.085914 -0.042359
v 0.085914 0.148807 -0.042359
vn -0.0000 -0.0000 -1.0000
vn -0.0000 -0.0000 1.0000
vn 1.0000 -0.0000 -0.0000
vn -1.0000 -0.0000 -0.0000
vn -0.0000 -1.0000 -0.0000
vn -0.0000 1.0000 -0.0053
vn -0.0000 0.9275 0.3737
vn -0.8127 -0.2178 0.5405
vn -0.2178 0.8127 0.5405
vn 0.8127 0.2178 0.5405
vn -0.5949 -0.5949 0.5405
vn 0.2178 -0.8127 0.5405
vn -0.5949 0.5949 0.5405
vn 0.5949 0.5949 0.5405
vn -0.2178 -0.8127 0.5405
vn 0.5949 -0.5949 0.5405
vn -0.8127 0.2178 0.5405
vn 0.2178 0.8127 0.5405
vn 0.8127 -0.2178 0.5405
vt 1.000000 1.000000
vt 0.000000 1.000000
vt 1.000000 0.000000
vt 0.000000 0.000000
vt 1.000000 1.000000
vt 0.000000 1.000000
vt 1.000000 0.000000
vt 0.000000 0.000000
vt 0.000000 0.000000
vt 0.000000 1.000000
vt 1.000000 1.000000
vt 1.000000 0.000000
vt 0.000000 0.000000
vt 0.000000 0.000000
vt 0.000000 0.000000
vt 0.000000 0.000000
vt 0.000000 0.000000
vt 0.000000 0.000000
vt 0.000000 0.000000
vt 0.000000 0.000000
vt 0.000000 0.000000
vt 0.000000 0.000000
vt 0.000000 0.000000
vt 0.000000 0.000000
vt 0.000000 0.000000
vt 0.000000 0.000000
vt 0.000000 0.000000
vt 0.000000 0.000000
vt 0.000000 0.000000
vt 0.000000 0.000000
vt 0.000000 0.000000
vt 0.000000 0.000000
vt 0.000000 0.000000
vt 0.000000 0.000000
vt 0.000000 0.000000
vt 0.000000 0.000000
s 0
f 3/3/1 2/2/1 4/4/1
f 6/6/2 7/7/2 8/8/2
f 10/10/3 8/8/3 9/9/3
f 7/7/4 11/11/4 12/12/4
f 8/8/5 12/12/5 9/9/5
f 5/5/6 10/10/6 11/11/6
f 11/11/7 2/2/7 1/1/7
f 9/9/5 3/3/5 4/4/5
f 12/12/4 1/1/4 3/3/4
f 2/2/3 9/9/3 4/4/3
f 23/23/8 34/34/8 22/22/8
f 20/20/9 31/31/9 19/19/9
f 17/17/10 28/28/10 16/16/10
f 24/24/11 35/35/11 23/23/11
f 14/14/12 25/25/12 13/13/12
f 21/21/13 32/32/13 20/20/13
f 17/17/14 30/30/14 29/29/14
f 13/13/15 36/36/15 24/24/15
f 15/15/16 26/26/16 14/14/16
f 21/21/17 34/34/17 33/33/17
f 19/19/18 30/30/18 18/18/18
f 16/16/19 27/27/19 15/15/19
f 33/33/2 35/35/2 25/25/2
f 3/3/1 1/1/1 2/2/1
f 6/6/2 5/5/2 7/7/2
f 10/10/3 6/6/3 8/8/3
f 7/7/4 5/5/4 11/11/4
f 8/8/5 7/7/5 12/12/5
f 5/5/6 6/6/6 10/10/6
f 11/11/7 10/10/7 2/2/7
f 9/9/5 12/12/5 3/3/5
f 12/12/4 11/11/4 1/1/4
f 2/2/3 10/10/3 9/9/3
f 23/23/8 35/35/8 34/34/8
f 20/20/9 32/32/9 31/31/9
f 17/17/10 29/29/10 28/28/10
f 24/24/11 36/36/11 35/35/11
f 14/14/12 26/26/12 25/25/12
f 21/21/13 33/33/13 32/32/13
f 17/17/14 18/18/14 30/30/14
f 13/13/15 25/25/15 36/36/15
f 15/15/16 27/27/16 26/26/16
f 21/21/17 22/22/17 34/34/17
f 19/19/18 31/31/18 30/30/18
f 16/16/19 28/28/19 27/27/19
f 25/25/2 26/26/2 27/27/2
f 27/27/2 28/28/2 29/29/2
f 29/29/2 30/30/2 31/31/2
f 31/31/2 32/32/2 29/29/2
f 32/32/2 33/33/2 29/29/2
f 33/33/2 34/34/2 35/35/2
f 35/35/2 36/36/2 25/25/2
f 25/25/2 27/27/2 33/33/2
f 27/27/2 29/29/2 33/33/2
o Cylinder
v 0.000000 0.132000 -0.225000
v 0.000000 0.132000 -0.575000
v 0.050000 0.145397 -0.225000
v 0.050000 0.145397 -0.575000
v 0.086603 0.182000 -0.225000
v 0.086603 0.182000 -0.575000
v 0.100000 0.232000 -0.225000
v 0.100000 0.232000 -0.575000
v 0.086603 0.282000 -0.225000
v 0.086603 0.282000 -0.575000
v 0.050000 0.318602 -0.225000
v 0.050000 0.318603 -0.575000
v -0.000000 0.332000 -0.225000
v -0.000000 0.332000 -0.575000
v -0.050000 0.318602 -0.225000
v -0.050000 0.318603 -0.575000
v -0.086603 0.282000 -0.225000
v -0.086603 0.282000 -0.575000
v -0.100000 0.232000 -0.225000
v -0.100000 0.232000 -0.575000
v -0.086603 0.182000 -0.225000
v -0.086603 0.182000 -0.575000
v -0.050000 0.145397 -0.225000
v -0.050000 0.145397 -0.575000
vn -0.2588 0.9659 -0.0000
vn -0.7071 0.7071 -0.0000
vn -0.9659 0.2588 -0.0000
vn -0.9659 -0.2588 -0.0000
vn -0.7071 -0.7071 -0.0000
vn -0.2588 -0.9659 -0.0000
vn 0.2588 -0.9659 -0.0000
vn 0.7071 -0.7071 -0.0000
vn 0.9659 -0.2588 -0.0000
vn 0.9659 0.2588 -0.0000
vn -0.0000 -0.0000 1.0000
vn 0.7071 0.7071 -0.0000
vn 0.2588 0.9659 -0.0000
vn -0.0000 -0.0000 -1.0000
vt 1.000000 0.500000
vt 0.000000 0.500000
vt 0.750000 0.490000
vt 1.000000 1.000000
vt 0.250000 0.490000
vt 0.000000 1.000000
vt 0.916667 0.500000
vt 0.870000 0.457846
vt 0.916667 1.000000
vt 0.370000 0.457846
vt 0.833333 0.500000
vt 0.957846 0.370000
vt 0.833333 1.000000
vt 0.457846 0.370000
vt 0.750000 0.500000
vt 0.990000 0.250000
vt 0.750000 1.000000
vt 0.490000 0.250000
vt 0.666667 0.500000
vt 0.957846 0.130000
vt 0.666667 1.000000
vt 0.457846 0.130000
vt 0.583333 0.500000
vt 0.870000 0.042154
vt 0.583333 1.000000
vt 0.370000 0.042154
vt 0.500000 0.500000
vt 0.750000 0.010000
vt 0.500000 1.000000
vt 0.250000 0.010000
vt 0.416667 0.500000
vt 0.630000 0.042154
vt 0.416667 1.000000
vt 0.130000 0.042154
vt 0.333333 0.500000
vt 0.542154 0.130000
vt 0.333333 1.000000
vt 0.042154 0.130000
vt 0.250000 0.500000
vt 0.510000 0.250000
vt 0.250000 1.000000
vt 0.010000 0.250000
vt 0.166667 0.500000
vt 0.542154 0.370000
vt 0.042154 0.370000
vt 0.166667 1.000000
vt 0.083333 0.500000
vt 0.630000 0.457846
vt 0.130000 0.457846
vt 0.083333 1.000000
s 0
f 39/43/20 38/40/20 37/37/20
f 41/47/21 40/45/21 39/43/21
f 43/51/22 42/49/22 41/47/22
f 45/55/23 44/53/23 43/51/23
f 47/59/24 46/57/24 45/55/24
f 47/59/25 50/65/25 48/61/25
f 51/67/26 50/65/26 49/63/26
f 51/67/27 54/73/27 52/69/27
f 55/75/28 54/73/28 53/71/28
f 57/79/29 56/77/29 55/75/29
f 46/58/30 50/66/30 54/74/30
f 59/83/31 58/82/31 57/79/31
f 37/38/32 60/86/32 59/83/32
f 51/68/33 47/60/33 39/44/33
f 39/43/20 40/45/20 38/40/20
f 41/47/21 42/49/21 40/45/21
f 43/51/22 44/53/22 42/49/22
f 45/55/23 46/57/23 44/53/23
f 47/59/24 48/61/24 46/57/24
f 47/59/25 49/63/25 50/65/25
f 51/67/26 52/69/26 50/65/26
f 51/67/27 53/71/27 54/73/27
f 55/75/28 56/77/28 54/73/28
f 57/79/29 58/82/29 56/77/29
f 38/41/30 40/46/30 42/50/30
f 42/50/30 44/54/30 46/58/30
f 46/58/30 48/62/30 50/66/30
f 50/66/30 52/70/30 54/74/30
f 54/74/30 56/78/30 58/81/30
f 58/81/30 60/85/30 54/74/30
f 60/85/30 38/41/30 54/74/30
f 38/41/30 42/50/30 54/74/30
f 42/50/30 46/58/30 54/74/30
f 59/83/31 60/86/31 58/82/31
f 37/38/32 38/42/32 60/86/32
f 39/44/33 37/39/33 59/84/33
f 59/84/33 57/80/33 39/44/33
f 57/80/33 55/76/33 39/44/33
f 55/76/33 53/72/33 51/68/33
f 51/68/33 49/64/33 47/60/33
f 47/60/33 45/56/33 43/52/33
f 43/52/33 41/48/33 47/60/33
f 41/48/33 39/44/33 47/60/33
f 55/76/33 51/68/33 39/44/33
